HIERARCHY
ROOT Hips
{
	OFFSET 0.0000 0.0000 0.0000
	CHANNELS 6 Xposition Yposition Zposition Zrotation Xrotation Yrotation
	JOINT Ab
	{
		OFFSET -0.0000 8.1305 -0.0000
		CHANNELS 3 Zrotation Xrotation Yrotation
		JOINT Chest
		{
			OFFSET -0.0000 26.2902 -0.0000
			CHANNELS 3 Zrotation Xrotation Yrotation
			JOINT Neck
			{
				OFFSET -0.0000 26.2902 0.0000
				CHANNELS 3 Zrotation Xrotation Yrotation
				JOINT Head
				{
					OFFSET -0.0000 10.8167 0.0000
					CHANNELS 3 Zrotation Xrotation Yrotation
					End Site
					{
						OFFSET -0.0000 16.7167 0.0000
					}
				}
			}
			JOINT LeftCollar
			{
				OFFSET -0.0000 26.2902 0.0000
				CHANNELS 3 Zrotation Xrotation Yrotation
				JOINT LeftShoulder
				{
					OFFSET 19.6667 -0.0000 0.0000
					CHANNELS 3 Zrotation Xrotation Yrotation
					JOINT LeftElbow
					{
						OFFSET 27.2190 0.0000 0.0000
						CHANNELS 3 Zrotation Xrotation Yrotation
						JOINT LeftWrist
						{
							OFFSET 30.7431 0.0000 0.0000
							CHANNELS 3 Zrotation Xrotation Yrotation
							End Site
							{
								OFFSET 0.0000 -14.7500 0.0000
							}
						}
					}
				}
			}
			JOINT RightCollar
			{
				OFFSET -0.0000 26.2902 0.0000
				CHANNELS 3 Zrotation Xrotation Yrotation
				JOINT RightShoulder
				{
					OFFSET -19.6667 0.0000 0.0000
					CHANNELS 3 Zrotation Xrotation Yrotation
					JOINT RightElbow
					{
						OFFSET -27.2190 0.0000 0.0000
						CHANNELS 3 Zrotation Xrotation Yrotation
						JOINT RightWrist
						{
							OFFSET -30.7431 0.0000 0.0000
							CHANNELS 3 Zrotation Xrotation Yrotation
							End Site
							{
								OFFSET -0.0000 -14.7500 0.0000
							}
						}
					}
				}
			}
		}
	}
	JOINT LeftHip
	{
		OFFSET 11.8000 0.0000 0.0000
		CHANNELS 3 Zrotation Xrotation Yrotation
		JOINT LeftKnee
		{
			OFFSET -0.0000 -39.7832 0.0000
			CHANNELS 3 Zrotation Xrotation Yrotation
			JOINT LeftAnkle
			{
				OFFSET -0.0000 -41.7317 0.0000
				CHANNELS 3 Zrotation Xrotation Yrotation
				End Site
				{
					OFFSET -0.0000 -4.9167 16.7167
				}
			}
		}
	}
	JOINT RightHip
	{
		OFFSET -11.8000 0.0000 0.0000
		CHANNELS 3 Zrotation Xrotation Yrotation
		JOINT RightKnee
		{
			OFFSET -0.0000 -39.7832 0.0000
			CHANNELS 3 Zrotation Xrotation Yrotation
			JOINT RightAnkle
			{
				OFFSET -0.0000 -41.7317 0.0000
				CHANNELS 3 Zrotation Xrotation Yrotation
				End Site
				{
					OFFSET -0.0000 -4.9167 16.7167
				}
			}
		}
	}
}
MOTION
Frames: 11
Frame Time: 0.010000
-16.4140 96.9465 177.7376 358.4294 356.8229 180.3998 357.6837 347.3320 359.8162 2.7084 12.5226 359.7843 356.5433 2.7220 359.8831 2.5135 7.8179 359.6307 340.1044 357.3515 15.0620 323.0415 61.2490 333.5342 8.3684 357.4928 326.5113 88.1814 355.7191 347.5596 26.9205 355.8650 342.8531 45.1686 50.7384 5.7100 339.2595 354.2124 30.9717 270.2675 354.6318 7.0469 356.2871 1.6841 359.8023 357.6426 6.9327 4.4509 354.3575 352.0266 13.5765 357.7863 4.0474 10.2552 6.7329 7.8773 11.3411 349.0226 343.7251 312.0161 
-16.4507 96.9422 177.7272 358.4329 356.7946 180.3966 357.6768 347.3434 359.8198 2.6895 12.5447 359.7839 356.5380 2.7108 359.8974 2.5273 7.8976 359.6372 340.1275 357.3569 15.0569 322.9465 61.2381 333.5868 8.3971 357.4775 326.5362 88.2264 355.7146 347.5659 26.9127 355.8627 342.8464 45.1669 50.7613 5.7433 339.2708 354.1808 30.9878 270.2624 354.6677 6.9689 356.2637 1.6610 359.7774 357.6427 6.9376 4.4583 354.4630 352.0158 13.5974 357.7596 4.0027 10.2480 6.7523 7.9187 11.3336 349.0128 343.7175 312.0338 
-16.4883 96.9369 177.7191 358.4401 356.7632 180.3975 357.6616 347.3553 359.8232 2.6845 12.5704 359.7808 356.5608 2.7044 359.8948 2.5026 7.9725 359.6299 340.1425 357.3412 15.0550 322.8846 61.2337 333.6431 8.4319 357.4569 326.5406 88.2120 355.7426 347.5263 26.9119 355.8556 342.8657 45.1855 50.7429 5.7085 339.2886 354.1660 31.0255 270.3842 354.6419 7.1228 356.2467 1.6248 359.7411 357.6378 6.9609 4.4783 354.4736 352.0060 13.6011 357.7376 3.9654 10.2742 6.7677 7.9369 11.3054 349.0171 343.6975 312.0323 
-16.5245 96.9317 177.7118 358.4471 356.7272 180.3898 357.6525 347.3625 359.8214 2.6586 12.6013 359.7947 356.6539 2.6625 359.8721 2.3787 8.0980 359.6182 340.1466 357.3422 15.0472 322.8998 61.1926 333.6594 8.3786 357.4746 326.4673 88.9708 355.8916 347.9132 26.9070 355.8717 342.8725 45.2131 50.7373 5.6984 339.2960 354.1818 31.0618 270.4132 354.6427 7.1207 356.2376 1.5840 359.6972 357.6137 6.9797 4.5182 354.2766 351.9641 13.6093 357.7195 3.9026 10.2637 6.7790 7.9970 11.2958 349.0411 343.6516 312.0423 
-16.5628 96.9276 177.7048 358.4537 356.6862 180.3804 357.6298 347.3678 359.8327 2.6632 12.6246 359.8086 356.6666 2.6750 359.8628 2.3542 8.1497 359.6219 340.1281 357.3511 15.0551 323.0175 61.1913 333.5576 8.3381 357.4971 326.4845 89.1412 355.9002 347.9901 26.8887 355.8828 342.8946 45.2603 50.7231 5.6666 339.2659 354.1777 31.0875 270.4880 354.6393 7.1528 356.2097 1.5132 359.6797 357.6288 7.0490 4.5407 354.5153 351.9377 13.5959 357.6940 3.8382 10.2715 6.8003 8.0480 11.3169 349.0443 343.6225 312.0102 
-16.6014 96.9238 177.6971 358.4668 356.6495 180.3708 357.6151 347.3783 359.8484 2.6570 12.6461 359.8118 356.6815 2.7009 359.8575 2.3518 8.1894 359.6178 340.1195 357.3460 15.0491 323.0331 61.1649 333.5532 8.3428 357.4744 326.4896 89.0708 355.9043 347.9262 26.8868 355.8989 342.9073 45.2727 50.7140 5.6707 339.2753 354.1804 31.0847 270.5314 354.5990 7.2071 356.1468 1.3426 359.6823 357.7210 7.3173 4.6250 354.3291 351.7912 13.4964 357.6783 3.7775 10.2167 6.8047 8.1061 11.3686 349.0476 343.5932 312.0153 
-16.6462 96.9180 177.6959 358.4690 356.5992 180.3656 357.5998 347.3901 359.8474 2.6340 12.6596 359.8229 356.7213 2.7120 359.8397 2.3280 8.2405 359.5933 340.1251 357.3541 15.0161 322.9534 61.1116 333.6509 8.3341 357.4789 326.4687 88.9826 355.9067 347.8286 26.8723 355.8791 342.9039 45.2959 50.7440 5.6841 339.2298 354.1737 31.0671 270.5848 354.5854 7.2266 356.1210 1.2790 359.6244 357.7098 7.3489 4.6351 354.4197 351.7593 13.5294 357.6407 3.6850 10.1643 6.8345 8.1909 11.4094 349.0467 343.5535 312.0141 
-16.6879 96.9115 177.6951 358.4762 356.5481 180.3587 357.5798 347.3998 359.8519 2.6253 12.6853 359.8297 356.7559 2.6581 359.8397 2.2782 8.3776 359.6017 340.1241 357.3602 15.0193 323.0029 61.1056 333.6069 8.3482 357.4722 326.4647 89.0063 355.9081 347.8671 26.8694 355.8971 342.9234 45.3000 50.7145 5.6762 339.2802 354.1784 31.1219 270.5712 354.6069 7.2269 356.1041 1.2138 359.5723 357.6966 7.3769 4.6732 354.5261 351.7535 13.5339 357.6108 3.5939 10.1252 6.8610 8.2674 11.4386 349.0635 343.5042 312.0164 
-16.7298 96.9059 177.6912 358.4886 356.5004 180.3549 357.5689 347.4052 359.8581 2.6062 12.7305 359.8415 357.0011 2.4556 359.8315 1.8889 8.7677 359.6279 340.1312 357.3432 15.0066 323.0333 61.0976 333.5837 8.3965 357.4730 326.4944 88.7752 355.8604 347.7565 26.8584 355.8960 342.9166 45.2841 50.7696 5.7376 339.2182 354.1666 31.1082 270.5819 354.5776 7.1338 356.0899 1.1481 359.5289 357.6889 7.4199 4.6688 354.4632 351.7130 13.5632 357.5918 3.5096 10.0820 6.8762 8.3436 11.4737 349.0544 343.4848 312.0094 
-16.7744 96.8988 177.6913 358.5017 356.4480 180.3515 357.5518 347.4142 359.8649 2.6025 12.7752 359.8478 357.5042 2.0365 359.8431 1.0427 9.5377 359.7178 340.1239 357.3513 15.0220 323.1531 61.0966 333.4671 8.3590 357.4848 326.4749 88.8322 355.8692 347.7869 26.8521 355.8867 342.9165 45.2340 50.8200 5.7886 339.1728 354.1396 31.1172 270.7756 354.6327 7.2579 356.0719 1.0736 359.4859 357.6846 7.4648 4.6773 354.3487 351.6712 13.5978 357.5674 3.4072 10.0393 6.9023 8.4423 11.5157 349.0722 343.4301 311.9997 
-16.8185 96.8915 177.6924 358.5148 356.3927 180.3436 357.5292 347.4245 359.8748 2.6071 12.8192 359.8554 357.2584 2.1913 359.8077 1.4789 9.2767 359.6352 340.1150 357.3437 15.0526 323.3388 61.1271 333.2676 8.3844 357.4756 326.4878 88.8273 355.8191 347.8242 26.8513 355.8995 342.9217 45.1827 50.8231 5.8300 339.1835 354.1283 31.1568 270.9131 354.6612 7.3435 356.0575 0.9966 359.4340 357.6703 7.5056 4.7064 354.5961 351.6587 13.5969 357.5442 3.2951 9.9998 6.9301 8.5512 11.5522 349.0770 343.3832 311.9940 
